<svg id="Ñëîé_1" data-name="Ñëîé 1" xmlns="http://www.w3.org/2000/svg" xmlns:xlink="http://www.w3.org/1999/xlink" viewBox="0 0 268.82 269.47"><defs><style>.cls-1{fill:none;}.cls-2{clip-path:url(#clip-path);}.cls-3{fill:#751480;}.cls-4{fill:#761580;}.cls-5{fill:#771680;}.cls-6{fill:#781780;}.cls-7{fill:#791881;}.cls-8{fill:#7a1881;}.cls-9{fill:#7a1981;}.cls-10{fill:#7b1981;}.cls-11{fill:#7c1a81;}.cls-12{fill:#7c1b81;}.cls-13{fill:#7d1b81;}.cls-14{fill:#7e1c81;}.cls-15{fill:#7f1d81;}.cls-16{fill:#7f1d82;}.cls-17{fill:#801e82;}.cls-18{fill:#811f82;}.cls-19{fill:#822082;}.cls-20{fill:#832082;}.cls-21{fill:#832182;}.cls-22{fill:#842282;}.cls-23{fill:#852282;}.cls-24{fill:#862382;}.cls-25{fill:#872483;}.cls-26{fill:#872583;}.cls-27{fill:#882683;}.cls-28{fill:#892683;}.cls-29{fill:#8a2783;}.cls-30{fill:#8b2883;}.cls-31{fill:#8c2983;}.cls-32{fill:#8d2a83;}.cls-33{fill:#8e2a84;}.cls-34{fill:#8f2b84;}.cls-35{fill:#8f2c84;}.cls-36{fill:#902d84;}.cls-37{fill:#912e84;}.cls-38{fill:#922f84;}.cls-39{fill:#932f84;}.cls-40{fill:#943085;}.cls-41{fill:#953185;}.cls-42{fill:#963285;}.cls-43{fill:#973385;}.cls-44{fill:#983485;}.cls-45{fill:#993585;}.cls-46{fill:#9a3585;}.cls-47{fill:#9b3685;}.cls-48{fill:#9c3786;}.cls-49{fill:#9d3886;}.cls-50{fill:#9e3986;}.cls-51{fill:#9f3a86;}.cls-52{fill:#a03b86;}.cls-53{fill:#a13c86;}.cls-54{fill:#a23d87;}.cls-55{fill:#a33e87;}.cls-56{fill:#a43f87;}.cls-57{fill:#a54087;}.cls-58{fill:#a64087;}.cls-59{fill:#a74187;}.cls-60{fill:#a84287;}.cls-61{fill:#a94388;}.cls-62{fill:#a48;}.cls-63{fill:#ab4588;}.cls-64{fill:#ac4688;}.cls-65{fill:#ad4788;}.cls-66{fill:#ae4888;}.cls-67{fill:#af4988;}.cls-68{fill:#b04a89;}.cls-69{fill:#b24b89;}.cls-70{fill:#b34c89;}.cls-71{fill:#b44d89;}.cls-72{fill:#b54e89;}.cls-73{fill:#b64f89;}.cls-74{fill:#b7508a;}.cls-75{fill:#b8518a;}.cls-76{fill:#b9528a;}.cls-77{fill:#ba538a;}.cls-78{fill:#bb548a;}.cls-79{fill:#bd558a;}.cls-80{fill:#be568b;}.cls-81{fill:#bf578b;}.cls-82{fill:#c0588b;}.cls-83{fill:#c1598b;}.cls-84{fill:#c25a8b;}.cls-85{fill:#c35b8b;}.cls-86{fill:#c45c8c;}.cls-87{fill:#c65d8c;}.cls-88{fill:#c75e8c;}.cls-89{fill:#c85f8c;}.cls-90{fill:#c9608c;}.cls-91{fill:#ca618c;}.cls-92{fill:#cb628d;}.cls-93{fill:#cc638d;}.cls-94{fill:#ce648d;}.cls-95{fill:#cf668d;}.cls-96{fill:#d0678d;}.cls-97{fill:#d1688d;}.cls-98{fill:#d2698e;}.cls-99{fill:#d36a8e;}.cls-100{fill:#d56b8e;}.cls-101{fill:#d66c8e;}.cls-102{fill:#d76d8e;}.cls-103{fill:#d86e8e;}.cls-104{fill:#d96f8f;}.cls-105{fill:#db708f;}.cls-106{fill:#dc718f;}.cls-107{fill:#dd728f;}.cls-108{fill:#de748f;}.cls-109{fill:#df758f;}.cls-110{fill:#e17690;}.cls-111{fill:#e27790;}.cls-112{fill:#e37890;}.cls-113{fill:#e47990;}.cls-114{fill:#e57a90;}.cls-115{fill:#e77b90;}.cls-116{fill:#e87c91;}.cls-117{fill:#e97d91;}.cls-118{fill:#ea7f91;}.cls-119{fill:#ec8091;}.cls-120{fill:#ed8191;}.cls-121{fill:#ee8292;}.cls-122{fill:#ef8392;}.cls-123{fill:#f18492;}.cls-124{fill:#f28592;}.cls-125{fill:#f38692;}.cls-126{fill:#f48892;}.cls-127{fill:#f58993;}.cls-128{fill:#f78a93;}.cls-129{fill:#f88b93;}.cls-130{fill:url(#Áåçûìÿííûé_ãðàäèåíò_126);}.cls-131{fill:url(#Áåçûìÿííûé_ãðàäèåíò_126-2);}.cls-132{fill:url(#Áåçûìÿííûé_ãðàäèåíò_127);}.cls-133{fill:#fcc29f;}.cls-134{fill:#fba999;}.cls-135{fill:#0b0244;opacity:0.4;}</style><clipPath id="clip-path" transform="translate(0 2.62)"><polygon class="cls-1" points="80.23 160.17 260.82 5.18 95.97 118.53 80.23 160.17"/></clipPath><linearGradient id="Áåçûìÿííûé_ãðàäèåíò_126" x1="-163.5" y1="257.39" x2="-401.11" y2="226.09" gradientTransform="matrix(0.59, 0.5, -1.19, 0.58, 557.5, 3.4)" gradientUnits="userSpaceOnUse"><stop offset="0" stop-color="#fcba9d"/><stop offset="0.56" stop-color="#ee8594"/><stop offset="1" stop-color="#e4608d"/></linearGradient><linearGradient id="Áåçûìÿííûé_ãðàäèåíò_126-2" x1="712.71" y1="128.69" x2="842.79" y2="109.73" gradientTransform="matrix(-0.87, -0.34, -1, 0.69, 984.47, 250.41)" xlink:href="#Áåçûìÿííûé_ãðàäèåíò_126"/><linearGradient id="Áåçûìÿííûé_ãðàäèåíò_127" x1="43" y1="181.76" x2="-138.65" y2="106.17" gradientTransform="matrix(0.87, 0.5, -0.87, 0.5, 339.08, 40.67)" gradientUnits="userSpaceOnUse"><stop offset="0" stop-color="#f88b93"/><stop offset="0.21" stop-color="#d76d8e"/><stop offset="0.57" stop-color="#a23d87"/><stop offset="0.85" stop-color="#811f82"/><stop offset="1" stop-color="#751480"/></linearGradient></defs><title>668 [Converted]</title><g class="cls-2"><rect class="cls-3" x="80.23" y="7.81" width="180.59" height="154.98"/><path class="cls-3" d="M79.23,140.1V61.74H73.15c12.34-24.09,30.21-45.78,52.29-64V4.18H261.82v157H79.23Z" transform="translate(0 2.62)"/><path class="cls-3" d="M79.23,140.1V62.34H74.86c12.26-23.9,30-45.43,51.9-63.51V4.18H261.82v157H79.23Z" transform="translate(0 2.62)"/><path class="cls-4" d="M79.23,140.1V62.94H76.58c12.16-23.72,29.75-45.08,51.49-63V4.18H261.82v157H79.23Z" transform="translate(0 2.62)"/><path class="cls-4" d="M79.23,140.1V63.53H78.3C90.36,40,107.82,18.81,129.39,1V4.18H261.82v157H79.23Z" transform="translate(0 2.62)"/><path class="cls-5" d="M79.23,140.1V73H75.78c1.32-3,2.74-5.94,4.23-8.86,12-23.35,29.29-44.38,50.7-62V4.18H261.82v157H79.23Z" transform="translate(0 2.62)"/><path class="cls-5" d="M79.23,140.1V82.52H73.84a170.69,170.69,0,0,1,7.89-17.79C93.6,41.56,110.79,20.7,132,3.18v1H261.82v157H79.23Z" transform="translate(0 2.62)"/><path class="cls-6" d="M79.23,140.1V83H75.61a171.32,171.32,0,0,1,7.83-17.65c11.79-23,28.84-43.68,49.9-61.06q4-3.27,8.09-6.36V4.18H261.82v157H79.23Z" transform="translate(0 2.62)"/><path class="cls-6" d="M79.23,140.1V83.43H77.39a170.37,170.37,0,0,1,7.77-17.5c11.69-22.8,28.6-43.33,49.5-60.58q3.92-3.22,8-6.31V4.18H261.82v157H79.23Z" transform="translate(0 2.62)"/><path class="cls-7" d="M79.23,140.1V102h-5.7A164.34,164.34,0,0,1,86.88,66.52c11.59-22.61,28.37-43,49.1-60.08q3.89-3.21,8-6.26v4H261.82v157H79.23Z" transform="translate(0 2.62)"/><path class="cls-8" d="M79.23,140.1V102.32H75.35a163.42,163.42,0,0,1,13.24-35.2c11.5-22.43,28.14-42.63,48.7-59.59q3.86-3.18,7.9-6.21V4.18H261.82v157H79.23Z" transform="translate(0 2.62)"/><path class="cls-9" d="M72.6,140.1c0-51.35,25.22-97.84,66-131.49q3.82-3.15,7.83-6.15V4.18H261.82v157H79.23V140.1Z" transform="translate(0 2.62)"/><path class="cls-10" d="M74.46,140.1c0-50.92,25-97,65.47-130.4q7.57-6.25,15.87-11.9V4.18h106v157H79.23V140.1Z" transform="translate(0 2.62)"/><path class="cls-11" d="M76.32,140.1c0-50.5,24.81-96.22,64.93-129.31Q148.76,4.58,157-1v5.2H261.82v157H79.23V140.1Z" transform="translate(0 2.62)"/><path class="cls-12" d="M78.19,140.1c0-50.07,24.6-95.41,64.37-128.23Q150,5.72,158.17.17v4H261.82v157H80.72v6.55c-.56-3-1-6-1.4-9.08A151.67,151.67,0,0,1,78.19,140.1Z" transform="translate(0 2.62)"/><path class="cls-13" d="M80.05,140.1c0-49.65,24.39-94.6,63.83-127.14q7.4-6.1,15.48-11.6V4.18H261.82v157H82.56v6.31q-.82-4.46-1.39-9A151,151,0,0,1,80.05,140.1Z" transform="translate(0 2.62)"/><path class="cls-14" d="M81.91,140.1c0-49.23,24.19-93.79,63.29-126q7.32-6,15.34-11.51V4.18H261.82v157H84.4v6.08c-.55-2.95-1-5.93-1.37-8.92A148.83,148.83,0,0,1,81.91,140.1Z" transform="translate(0 2.62)"/><path class="cls-15" d="M83.77,140.1c0-48.8,24-93,62.74-125q7.28-6,15.22-11.4v.45H261.82v157H86.24V167q-.81-4.38-1.36-8.84A148.09,148.09,0,0,1,83.77,140.1Z" transform="translate(0 2.62)"/><path class="cls-16" d="M85.64,140.1c0-48.38,23.76-92.18,62.19-123.88q7.2-5.94,15.08-11.31,3.93-2.67,8-5.2V4.18h90.89v157H88.08v5.61q-.8-4.35-1.35-8.77A147.47,147.47,0,0,1,85.64,140.1Z" transform="translate(0 2.62)"/><path class="cls-17" d="M87.5,140.1c0-47.95,23.56-91.37,61.65-122.79q7.14-5.89,14.94-11.21,3.9-2.65,8-5.16V4.18h89.77v157H89.92v5.38c-.53-2.88-1-5.77-1.33-8.69A145,145,0,0,1,87.5,140.1Z" transform="translate(0 2.62)"/><path class="cls-18" d="M89.36,140.1c0-47.53,23.35-90.56,61.11-121.71a205.85,205.85,0,0,1,30.87-21v6.8h80.48v157h-170v5.14Q91,162,90.44,157.7A144.51,144.51,0,0,1,89.36,140.1Z" transform="translate(0 2.62)"/><path class="cls-19" d="M91.22,140.1c0-47.1,23.15-89.75,60.56-120.62a204.56,204.56,0,0,1,30.6-20.83V4.18h79.44v157H93.61v4.91c-.53-2.82-1-5.67-1.32-8.54A143.77,143.77,0,0,1,91.22,140.1Z" transform="translate(0 2.62)"/><path class="cls-20" d="M93.09,140.1c0-46.68,22.93-88.94,60-119.53A202.09,202.09,0,0,1,183.42-.07V4.18h78.4v157H95.45v4.67c-.52-2.79-1-5.61-1.3-8.46A141.15,141.15,0,0,1,93.09,140.1Z" transform="translate(0 2.62)"/><path class="cls-21" d="M95,140.1C95,93.84,117.67,52,154.42,21.65a201.13,201.13,0,0,1,30-20.45v3h77.36v157H97.29v4.44c-.51-2.77-1-5.57-1.29-8.38A140.81,140.81,0,0,1,95,140.1Z" transform="translate(0 2.62)"/><path class="cls-22" d="M96.81,140.1c0-45.83,22.52-87.32,58.92-117.36A198.91,198.91,0,0,1,185.51,2.47V4.18h76.31v157H99.13v4.21q-.76-4.12-1.28-8.31A138.19,138.19,0,0,1,96.81,140.1Z" transform="translate(0 2.62)"/><path class="cls-23" d="M98.68,140.1c0-45.41,22.3-86.52,58.37-116.27a197,197,0,0,1,29.5-20.08v.43h75.27v157H101v4c-.5-2.72-.93-5.46-1.27-8.23A137.45,137.45,0,0,1,98.68,140.1Z" transform="translate(0 2.62)"/><path class="cls-24" d="M100.54,140.1c0-45,22.1-85.71,57.83-115.19A195.24,195.24,0,0,1,187.59,5c2.62-1.46,5.3-2.87,8-4.23V4.18h66.22v157h-159v3.74q-.75-4-1.25-8.15A135.25,135.25,0,0,1,100.54,140.1Z" transform="translate(0 2.62)"/><path class="cls-25" d="M102.4,140.1c0-44.56,21.89-84.9,57.28-114.1A193.9,193.9,0,0,1,188.63,6.3q7.8-4.35,16.13-8.09v6h57.06v157H104.65v3.5c-.49-2.67-.91-5.36-1.24-8.07A134.61,134.61,0,0,1,102.4,140.1Z" transform="translate(0 2.62)"/><path class="cls-26" d="M104.26,140.1C104.26,96,126,56,161,27.09A192.75,192.75,0,0,1,189.67,7.57q7.72-4.3,16-8V4.18h56.18v157H106.5v3.27c-.49-2.64-.91-5.31-1.24-8A133.87,133.87,0,0,1,104.26,140.1Z" transform="translate(0 2.62)"/><path class="cls-27" d="M106.13,140.1c0-43.71,21.47-83.28,56.19-111.93A189.47,189.47,0,0,1,190.71,8.85q7.66-4.27,15.82-7.93V4.18h55.29v157H108.34v3q-.74-3.93-1.22-7.93A131.38,131.38,0,0,1,106.13,140.1Z" transform="translate(0 2.62)"/><path class="cls-28" d="M108,140.1c0-43.28,21.26-82.47,55.65-110.84a187.81,187.81,0,0,1,28.11-19.14q7.59-4.23,15.67-7.85V4.18h54.4v157H110.18V164c-.48-2.59-.89-5.21-1.21-7.84A130.91,130.91,0,0,1,108,140.1Z" transform="translate(0 2.62)"/><path class="cls-29" d="M109.85,140.1c0-42.86,21.06-81.66,55.1-109.75a186.34,186.34,0,0,1,27.85-19q7.5-4.17,15.51-7.77v.56h53.51v157H112v2.57q-.72-3.86-1.2-7.77A130.29,130.29,0,0,1,109.85,140.1Z" transform="translate(0 2.62)"/><path class="cls-30" d="M111.71,140.1c0-42.44,20.85-80.86,54.56-108.67A192.86,192.86,0,0,1,225.48-1.5V4.18h36.34v157h-148v2.33c-.47-2.54-.87-5.1-1.18-7.69A127.55,127.55,0,0,1,111.71,140.1Z" transform="translate(0 2.62)"/><path class="cls-31" d="M113.58,140.1c0-42,20.64-80,54-107.58A190.52,190.52,0,0,1,226.2-.08V4.18h35.62v157H115.7v2.1q-.7-3.78-1.17-7.61A127.33,127.33,0,0,1,113.58,140.1Z" transform="translate(0 2.62)"/><path class="cls-32" d="M115.44,140.1c0-41.59,20.43-79.24,53.46-106.49a188.92,188.92,0,0,1,58-32.28V4.18h34.89v157H117.54V163q-.69-3.75-1.16-7.54A126.59,126.59,0,0,1,115.44,140.1Z" transform="translate(0 2.62)"/><path class="cls-33" d="M117.3,140.1c0-41.16,20.23-78.43,52.92-105.41A187.17,187.17,0,0,1,227.65,2.75V4.18h34.17v157H119.38v1.63c-.45-2.47-.84-5-1.15-7.46A126,126,0,0,1,117.3,140.1Z" transform="translate(0 2.62)"/><path class="cls-34" d="M119.16,140.1c0-40.74,20-77.62,52.38-104.32A185.08,185.08,0,0,1,228.38,4.16v0h33.44v157H121.23v1.4c-.46-2.44-.84-4.91-1.14-7.39A123.34,123.34,0,0,1,119.16,140.1Z" transform="translate(0 2.62)"/><path class="cls-35" d="M121,140.1c0-40.31,19.8-76.81,51.83-103.23A183.15,183.15,0,0,1,229.1,5.58q8-2.78,16.26-4.91V4.18h16.46v157H123.07v1.16c-.45-2.41-.83-4.85-1.13-7.3A123,123,0,0,1,121,140.1Z" transform="translate(0 2.62)"/><path class="cls-36" d="M122.89,140.1c0-39.89,19.6-76,51.28-102.15A181.3,181.3,0,0,1,229.83,7a200.74,200.74,0,0,1,32.86-8.42l-.87,5.6v157H124.91v.93q-.68-3.58-1.12-7.23A122.4,122.4,0,0,1,122.89,140.1Z" transform="translate(0 2.62)"/><path class="cls-37" d="M124.75,140.1c0-39.47,19.39-75.2,50.74-101.06A179.28,179.28,0,0,1,230.55,8.41,200.93,200.93,0,0,1,263.07.08l-1.25,4.1v157H126.75v.7c-.44-2.37-.81-4.75-1.1-7.16A119.77,119.77,0,0,1,124.75,140.1Z" transform="translate(0 2.62)"/><path class="cls-38" d="M126.62,140.1c0-39,19.18-74.39,50.19-100a177.08,177.08,0,0,1,54.47-30.3,196.77,196.77,0,0,1,32.16-8.24l-1.62,2.59v157H128.59v.46c-.43-2.34-.8-4.7-1.09-7.07A117.44,117.44,0,0,1,126.62,140.1Z" transform="translate(0 2.62)"/><path class="cls-39" d="M128.48,140.1c0-38.62,19-73.58,49.64-98.89a175.61,175.61,0,0,1,53.88-30A195.92,195.92,0,0,1,263.82,3.1l-2,1.08v157H130.43v.23q-.65-3.48-1.08-7A116.69,116.69,0,0,1,128.48,140.1Z" transform="translate(0 2.62)"/><path class="cls-40" d="M130.34,140.1c0-38.19,18.76-72.77,49.1-97.8a173.62,173.62,0,0,1,53.29-29.64A192.66,192.66,0,0,1,264.2,4.6h-2.38V161.17H133.75V168A115.31,115.31,0,0,1,130.34,140.1Z" transform="translate(0 2.62)"/><path class="cls-41" d="M132.2,140.1c0-37.77,18.56-72,48.56-96.71a171.48,171.48,0,0,1,52.69-29.31,190.94,190.94,0,0,1,31.12-8h-2.75V161.17H135.57v6.5A114.3,114.3,0,0,1,132.2,140.1Z" transform="translate(0 2.62)"/><path class="cls-42" d="M134.07,140.1c0-37.34,18.34-71.15,48-95.63a169.9,169.9,0,0,1,52.1-29A188.7,188.7,0,0,1,265,7.61h-3.13V161.17H137.4v6.19A112.74,112.74,0,0,1,134.07,140.1Z" transform="translate(0 2.62)"/><path class="cls-43" d="M135.93,140.1c0-36.92,18.14-70.34,47.46-94.54A167.72,167.72,0,0,1,234.9,16.91a187,187,0,0,1,30.42-7.79h-3.5v152H139.22v5.88A111.74,111.74,0,0,1,135.93,140.1Z" transform="translate(0 2.62)"/><path class="cls-44" d="M137.79,140.1c0-36.49,17.93-69.54,46.92-93.45a165.72,165.72,0,0,1,50.92-28.33,184.73,184.73,0,0,1,30.07-7.7h-3.88V161.17H141.05v5.57A110.24,110.24,0,0,1,137.79,140.1Z" transform="translate(0 2.62)"/><path class="cls-45" d="M139.65,140.1c0-36.07,17.73-68.73,46.38-92.37a163.77,163.77,0,0,1,50.32-28,182,182,0,0,1,29.72-7.61h-4.25v149H142.87v5.26A109.17,109.17,0,0,1,139.65,140.1Z" transform="translate(0 2.62)"/><path class="cls-46" d="M141.52,140.1c0-35.65,17.51-67.92,45.82-91.28a161.94,161.94,0,0,1,49.74-27.66,179.76,179.76,0,0,1,29.37-7.53h-4.63V161.17H144.7v5A107.67,107.67,0,0,1,141.52,140.1Z" transform="translate(0 2.62)"/><path class="cls-47" d="M143.38,140.1c0-35.22,17.3-67.11,45.28-90.19A160.24,160.24,0,0,1,237.8,22.57a178,178,0,0,1,29-7.43h-5v146H146.52v4.64A106.6,106.6,0,0,1,143.38,140.1Z" transform="translate(0 2.62)"/><path class="cls-48" d="M145.24,140.1c0-34.8,17.1-66.3,44.74-89.11a157.9,157.9,0,0,1,48.55-27,174.76,174.76,0,0,1,28.67-7.34h-5.38V161.17H148.35v4.33A105.1,105.1,0,0,1,145.24,140.1Z" transform="translate(0 2.62)"/><path class="cls-49" d="M147.1,140.1c0-34.37,16.89-65.49,44.2-88A156.2,156.2,0,0,1,239.25,25.4a174.05,174.05,0,0,1,28.32-7.25h-5.75v143H150.17v4A104.1,104.1,0,0,1,147.1,140.1Z" transform="translate(0 2.62)"/><path class="cls-50" d="M149,140.1c0-33.95,16.68-64.68,43.64-86.93A154.16,154.16,0,0,1,240,26.82a170.79,170.79,0,0,1,28-7.16h-6.13V161.17H152v3.71A103,103,0,0,1,149,140.1Z" transform="translate(0 2.62)"/><path class="cls-51" d="M150.83,140.1c0-33.52,16.47-63.88,43.1-85.85a152.3,152.3,0,0,1,46.77-26,169.34,169.34,0,0,1,27.62-7.08h-6.5v140h-108v3.4A101.47,101.47,0,0,1,150.83,140.1Z" transform="translate(0 2.62)"/><path class="cls-52" d="M152.69,140.1C152.69,107,169,77,195.25,55.34a150.33,150.33,0,0,1,46.18-25.69,166.82,166.82,0,0,1,27.27-7h-6.88v138.5H155.64v3.09A100.4,100.4,0,0,1,152.69,140.1Z" transform="translate(0 2.62)"/><path class="cls-53" d="M154.56,140.1c0-32.68,16.05-62.26,42-83.67a148.45,148.45,0,0,1,45.59-25.36q6.43-2.25,13.18-4,3.37-.87,6.81-1.6h-.32V161.17H157.47V164A98.9,98.9,0,0,1,154.56,140.1Z" transform="translate(0 2.62)"/><path class="cls-54" d="M156.42,140.1c0-32.25,15.84-61.45,41.46-82.59a146.66,146.66,0,0,1,45-25c4.23-1.47,8.57-2.79,13-3.92q3.33-.86,6.72-1.58h-.78V161.17H159.29v2.47A97.89,97.89,0,0,1,156.42,140.1Z" transform="translate(0 2.62)"/><path class="cls-55" d="M158.28,140.1c0-31.83,15.64-60.64,40.92-81.5a144.52,144.52,0,0,1,44.4-24.7q6.27-2.19,12.84-3.88,3.29-.84,6.63-1.55h-1.25v132.7H161.12v2.16A96.33,96.33,0,0,1,158.28,140.1Z" transform="translate(0 2.62)"/><path class="cls-56" d="M160.14,140.1c0-31.4,15.43-59.83,40.37-80.41a142.7,142.7,0,0,1,43.82-24.37c4.12-1.44,8.35-2.72,12.66-3.83q3.24-.82,6.54-1.53h-1.71V161.17H162.94V163A95.33,95.33,0,0,1,160.14,140.1Z" transform="translate(0 2.62)"/><path class="cls-57" d="M162,140.1c0-31,15.22-59,39.82-79.33a141,141,0,0,1,43.22-24q6.1-2.13,12.5-3.77c2.12-.55,4.28-1.05,6.45-1.51h-2.18V161.17h-97v1.54A93.76,93.76,0,0,1,162,140.1Z" transform="translate(0 2.62)"/><path class="cls-58" d="M163.87,140.1c0-30.55,15-58.22,39.28-78.24a138.74,138.74,0,0,1,42.63-23.71q6-2.1,12.32-3.72,3.15-.81,6.36-1.49h-2.64V161.17H166.59v1.23A92.76,92.76,0,0,1,163.87,140.1Z" transform="translate(0 2.62)"/><path class="cls-59" d="M165.73,140.1c0-30.13,14.8-57.41,38.74-77.15a136.83,136.83,0,0,1,42-23.39q5.94-2.07,12.15-3.66c2.07-.54,4.17-1,6.28-1.48h-3.11V161.17h-93.4v.92A91.26,91.26,0,0,1,165.73,140.1Z" transform="translate(0 2.62)"/><path class="cls-60" d="M167.59,140.1c0-29.71,14.6-56.6,38.19-76.07A135,135,0,0,1,247.23,41q5.85-2,12-3.62,3.06-.78,6.19-1.45h-3.58V161.17H170.24v.61A90.2,90.2,0,0,1,167.59,140.1Z" transform="translate(0 2.62)"/><path class="cls-61" d="M169.46,140.1c0-29.28,14.38-55.79,37.64-75A133.05,133.05,0,0,1,248,42.4q5.78-2,11.81-3.57c2-.52,4.05-1,6.1-1.43h-4V161.17H172.07v.3A88.69,88.69,0,0,1,169.46,140.1Z" transform="translate(0 2.62)"/><path class="cls-62" d="M171.32,140.1c0-28.86,14.18-55,37.1-73.89a131,131,0,0,1,40.26-22.4q5.69-2,11.64-3.51,3-.77,6-1.41h-4.51V161.17H175.31v5.05c-.52-1.67-1-3.36-1.42-5.06A87.63,87.63,0,0,1,171.32,140.1Z" transform="translate(0 2.62)"/><path class="cls-63" d="M173.18,140.1c0-28.43,14-54.17,36.55-72.81A129.39,129.39,0,0,1,249.4,45.23q5.61-1.95,11.47-3.46c1.95-.51,3.93-1,5.92-1.39h-5V161.17H177.11v4.66c-.51-1.64-1-3.3-1.39-5A86.13,86.13,0,0,1,173.18,140.1Z" transform="translate(0 2.62)"/><path class="cls-64" d="M175,140.1c0-28,13.76-53.36,36-71.72a127.41,127.41,0,0,1,39.08-21.74q5.52-1.92,11.29-3.41c1.93-.49,3.87-.95,5.84-1.36h-5.44v119.3h-82.9v4.28q-.76-2.43-1.38-4.91A84.62,84.62,0,0,1,175,140.1Z" transform="translate(0 2.62)"/><path class="cls-65" d="M176.91,140.1c0-27.58,13.55-52.56,35.46-70.63a125.16,125.16,0,0,1,38.48-21.41c3.62-1.26,7.34-2.39,11.13-3.36h-.16V161.17h-81.1v3.9q-.75-2.4-1.35-4.84A83.06,83.06,0,0,1,176.91,140.1Z" transform="translate(0 2.62)"/><path class="cls-66" d="M178.77,140.1c0-27.16,13.34-51.75,34.92-69.55a123.14,123.14,0,0,1,37.89-21.07c3.56-1.25,7.22-2.35,10.95-3.31h-.71v115h-79.3v3.51q-.74-2.35-1.33-4.76A82.06,82.06,0,0,1,178.77,140.1Z" transform="translate(0 2.62)"/><path class="cls-67" d="M180.63,140.1c0-26.73,13.14-50.94,34.37-68.46a121.49,121.49,0,0,1,37.3-20.75q5.26-1.83,10.79-3.25h-1.27V161.17H184.33v3.13c-.49-1.55-.92-3.11-1.31-4.69A80.56,80.56,0,0,1,180.63,140.1Z" transform="translate(0 2.62)"/><path class="cls-68" d="M182.5,140.1c0-26.31,12.92-50.13,33.82-67.37A119.5,119.5,0,0,1,253,52.31q5.18-1.81,10.61-3.21h-1.82V161.17H186.13v2.74c-.47-1.52-.9-3.06-1.29-4.61A79.49,79.49,0,0,1,182.5,140.1Z" transform="translate(0 2.62)"/><path class="cls-69" d="M184.36,140.1c0-25.89,12.72-49.32,33.28-66.29a117.77,117.77,0,0,1,36.11-20.09c3.4-1.18,6.89-2.24,10.44-3.15h-2.37v110.6H189.47V168a79.05,79.05,0,0,1-5.11-27.88Z" transform="translate(0 2.62)"/><path class="cls-70" d="M186.22,140.1c0-25.46,12.51-48.51,32.73-65.2a116,116,0,0,1,35.53-19.76q5-1.76,10.27-3.1h-2.93V161.17H191.25v6.35a80.07,80.07,0,0,1-2.76-8.84A76.92,76.92,0,0,1,186.22,140.1Z" transform="translate(0 2.62)"/><path class="cls-71" d="M188.08,140.1c0-25,12.3-47.7,32.19-64.11A113.6,113.6,0,0,1,255.2,56.56q4.94-1.73,10.1-3.05h-3.48V161.17H193v5.89a76.68,76.68,0,0,1-2.7-8.69A75.42,75.42,0,0,1,188.08,140.1Z" transform="translate(0 2.62)"/><path class="cls-72" d="M190,140.1c0-24.61,12.09-46.9,31.64-63A111.79,111.79,0,0,1,255.93,58q4.85-1.69,9.92-3h-4v106.2h-67v5.44a76.26,76.26,0,0,1-2.66-8.55A74.41,74.41,0,0,1,190,140.1Z" transform="translate(0 2.62)"/><path class="cls-73" d="M191.81,140.1c0-24.19,11.88-46.09,31.1-61.94a109.65,109.65,0,0,1,33.74-18.77q4.77-1.66,9.76-3h-4.59V161.17H196.58v5a73.6,73.6,0,0,1-2.61-8.4A72.86,72.86,0,0,1,191.81,140.1Z" transform="translate(0 2.62)"/><path class="cls-74" d="M193.67,140.1c0-23.76,11.68-45.28,30.55-60.85A108.05,108.05,0,0,1,257.38,60.8q4.68-1.62,9.58-2.89h-5.14V161.17H198.36v4.52a73,73,0,0,1-2.57-8.25A71.85,71.85,0,0,1,193.67,140.1Z" transform="translate(0 2.62)"/><path class="cls-75" d="M195.53,140.1c0-23.34,11.47-44.47,30-59.77A106.31,106.31,0,0,1,258.1,62.22q4.61-1.61,9.42-2.84h-5.7V161.17H200.14v4.07a71.61,71.61,0,0,1-2.52-8.1A70.43,70.43,0,0,1,195.53,140.1Z" transform="translate(0 2.62)"/><path class="cls-76" d="M197.4,140.1c0-22.92,11.25-43.66,29.46-58.68a104.1,104.1,0,0,1,32-17.78c3-1,6.09-2,9.24-2.79h-6.25V161.17h-59.9v3.61a71,71,0,0,1-2.48-7.95A69.42,69.42,0,0,1,197.4,140.1Z" transform="translate(0 2.62)"/><path class="cls-77" d="M199.26,140.1c0-22.49,11.05-42.85,28.91-57.59a102.25,102.25,0,0,1,31.38-17.46q4.44-1.55,9.07-2.74h-6.8v98.86H203.7v3.15a68.69,68.69,0,0,1-4.44-24.22Z" transform="translate(0 2.62)"/><path class="cls-78" d="M201.12,140.1c0-22.07,10.84-42,28.37-56.51a100.23,100.23,0,0,1,30.79-17.12c1.45-.51,2.91-1,4.4-1.43h-2.86v96.13H205.48v2.69a67.78,67.78,0,0,1-2.39-7.65A66.86,66.86,0,0,1,201.12,140.1Z" transform="translate(0 2.62)"/><path class="cls-79" d="M203,140.1c0-21.64,10.64-41.24,27.83-55.42A98.41,98.41,0,0,1,261,67.88c1.42-.49,2.86-1,4.32-1.4h-3.5v94.69H207.26v2.24a68,68,0,0,1-2.35-7.51A65.86,65.86,0,0,1,203,140.1Z" transform="translate(0 2.62)"/><path class="cls-80" d="M204.85,140.1c0-21.22,10.42-40.43,27.28-54.33a96.21,96.21,0,0,1,29.6-16.47c1.39-.49,2.8-.94,4.23-1.38h-4.14v93.25H209V163a67.4,67.4,0,0,1-2.29-7.36A64.29,64.29,0,0,1,204.85,140.1Z" transform="translate(0 2.62)"/><path class="cls-81" d="M206.71,140.1c0-20.79,10.22-39.62,26.73-53.25a94.51,94.51,0,0,1,29-16.13h-.63v90.45h-51v1.32a64.06,64.06,0,0,1-2.25-7.21A63.29,63.29,0,0,1,206.71,140.1Z" transform="translate(0 2.62)"/><path class="cls-82" d="M208.57,140.1c0-20.37,10-38.81,26.19-52.16a92.75,92.75,0,0,1,28.42-15.81h-1.36v89H212.59V162a62.33,62.33,0,0,1-4-21.94Z" transform="translate(0 2.62)"/><path class="cls-83" d="M210.44,140.1c0-19.94,9.79-38,25.64-51.07A90.4,90.4,0,0,1,263.9,73.55h-2.08v87.62H214.37v.41a63.75,63.75,0,0,1-2.16-6.92A60.66,60.66,0,0,1,210.44,140.1Z" transform="translate(0 2.62)"/><path class="cls-84" d="M212.3,140.1c0-19.52,9.59-37.19,25.09-50A89,89,0,0,1,264.63,75h-2.81v86.21H219v6.45A60.1,60.1,0,0,1,212.3,140.1Z" transform="translate(0 2.62)"/><path class="cls-85" d="M214.16,140.1c0-19.1,9.38-36.38,24.55-48.9a86.85,86.85,0,0,1,26.64-14.82h-3.53v84.79H220.75V167A58.72,58.72,0,0,1,214.16,140.1Z" transform="translate(0 2.62)"/><path class="cls-86" d="M216,140.1c0-18.67,9.18-35.58,24-47.81a84.63,84.63,0,0,1,26-14.49h-4.26v83.37H222.46v5.25A57.48,57.48,0,0,1,216,140.1Z" transform="translate(0 2.62)"/><path class="cls-87" d="M217.89,140.1c0-18.25,9-34.77,23.46-46.73A83.11,83.11,0,0,1,266.8,79.21h-5v82H224.18v4.65A56.12,56.12,0,0,1,217.89,140.1Z" transform="translate(0 2.62)"/><path class="cls-88" d="M219.75,140.1c0-17.82,8.76-34,22.91-45.64a80.87,80.87,0,0,1,24.87-13.83h-5.71v80.54H225.9v4.05A54.76,54.76,0,0,1,219.75,140.1Z" transform="translate(0 2.62)"/><path class="cls-89" d="M221.61,140.1c0-17.4,8.55-33.15,22.37-44.55A79.17,79.17,0,0,1,268.25,82h-6.43v79.13H227.61v3.46A53.57,53.57,0,0,1,221.61,140.1Z" transform="translate(0 2.62)"/><path class="cls-90" d="M223.47,140.1c0-17,8.34-32.34,21.83-43.47a73.89,73.89,0,0,1,11-7.5c2-1.11,4-2.13,6.15-3.08h-.65v75.12H229.33V164A52.21,52.21,0,0,1,223.47,140.1Z" transform="translate(0 2.62)"/><path class="cls-91" d="M225.34,140.1c0-16.55,8.13-31.53,21.27-42.38a72.85,72.85,0,0,1,10.75-7.32c1.94-1.07,3.94-2.08,6-3h-1.53v73.77H231.05v2.26A50.82,50.82,0,0,1,225.34,140.1Z" transform="translate(0 2.62)"/><path class="cls-92" d="M227.2,140.1c0-16.13,7.92-30.72,20.73-41.29a70,70,0,0,1,10.48-7.13c1.88-1.05,3.83-2,5.83-2.93h-2.42v72.42H232.76v1.66A49.58,49.58,0,0,1,227.2,140.1Z" transform="translate(0 2.62)"/><path class="cls-93" d="M229.06,140.1c0-15.7,7.72-29.92,20.19-40.21A68,68,0,0,1,259.45,93c1.83-1,3.73-2,5.68-2.85h-3.31v71.07H234.48v1.06A48.22,48.22,0,0,1,229.06,140.1Z" transform="translate(0 2.62)"/><path class="cls-94" d="M230.92,140.1c0-15.28,7.51-29.11,19.65-39.12a65.54,65.54,0,0,1,9.92-6.75c1.78-1,3.63-1.92,5.53-2.78h-4.2v69.72H236.19v.47A47,47,0,0,1,230.92,140.1Z" transform="translate(0 2.62)"/><path class="cls-95" d="M232.79,140.1c0-14.85,7.29-28.3,19.09-38a63.74,63.74,0,0,1,9.65-6.57c1.73-1,3.53-1.87,5.38-2.69h-5.09v68.36H240.66v4.57a50.53,50.53,0,0,1-2.75-4.7A45.66,45.66,0,0,1,232.79,140.1Z" transform="translate(0 2.62)"/><path class="cls-96" d="M234.65,140.1c0-14.43,7.09-27.49,18.55-36.95a62.76,62.76,0,0,1,9.37-6.38h-.75v64.4H242.29V165a49.83,49.83,0,0,1-2.66-4.57A44.28,44.28,0,0,1,234.65,140.1Z" transform="translate(0 2.62)"/><path class="cls-97" d="M236.51,140.1c0-14,6.88-26.68,18-35.86a60.81,60.81,0,0,1,9.09-6.19h-1.79v63.12H243.93v3.1a47.86,47.86,0,0,1-2.59-4.43A43.07,43.07,0,0,1,236.51,140.1Z" transform="translate(0 2.62)"/><path class="cls-98" d="M238.38,140.1c0-13.58,6.67-25.87,17.45-34.77a59,59,0,0,1,8.82-6h-2.83v61.85H248.56v6.43a47.11,47.11,0,0,1-5.5-8.36A41.68,41.68,0,0,1,238.38,140.1Z" transform="translate(0 2.62)"/><path class="cls-99" d="M240.24,140.1c0-13.15,6.46-25.06,16.91-33.69a56.82,56.82,0,0,1,8.55-5.81h-3.88v60.57H250.1v5.57a45.6,45.6,0,0,1-5.32-8.1A40.32,40.32,0,0,1,240.24,140.1Z" transform="translate(0 2.62)"/><path class="cls-100" d="M242.1,140.1c0-12.73,6.26-24.26,16.37-32.6a55.67,55.67,0,0,1,8.27-5.63h-4.92v59.3H251.64v4.71a45.58,45.58,0,0,1-5.15-7.83A39.12,39.12,0,0,1,242.1,140.1Z" transform="translate(0 2.62)"/><path class="cls-101" d="M244,140.1c0-12.31,6-23.45,15.82-31.51a53.57,53.57,0,0,1,8-5.44h-6v58h-8.63V165a43.18,43.18,0,0,1-5-7.57A37.9,37.9,0,0,1,244,140.1Z" transform="translate(0 2.62)"/><path class="cls-102" d="M245.83,140.1c0-11.88,5.83-22.64,15.27-30.43a52.63,52.63,0,0,1,7.72-5.25h-7v56.75h-7.09v3a41.73,41.73,0,0,1-4.81-7.31A36.65,36.65,0,0,1,245.83,140.1Z" transform="translate(0 2.62)"/><path class="cls-103" d="M247.69,140.1c0-11.46,5.63-21.83,14.73-29.34h-.6v50.41h-5.54v2.13a39.72,39.72,0,0,1-4.64-7.05A35.26,35.26,0,0,1,247.69,140.1Z" transform="translate(0 2.62)"/><path class="cls-104" d="M249.55,140.1c0-11,5.42-21,14.19-28.25h-1.92v49.32h-4v1.27a37.85,37.85,0,0,1-4.46-6.79A33.91,33.91,0,0,1,249.55,140.1Z" transform="translate(0 2.62)"/><path class="cls-105" d="M251.41,140.1c0-10.61,5.22-20.21,13.64-27.17h-3.23v48.24l3.23,6.1C256.63,160.31,251.41,150.71,251.41,140.1Z" transform="translate(0 2.62)"/><path class="cls-106" d="M253.28,140.1c0-10.18,5-19.4,13.09-26.08h-4.55v47.15l4.55,5C258.28,159.51,253.28,150.29,253.28,140.1Z" transform="translate(0 2.62)"/><path class="cls-107" d="M255.14,140.1c0-9.76,4.79-18.6,12.55-25h-5.87v46.06l5.87,3.92C259.93,158.7,255.14,149.86,255.14,140.1Z" transform="translate(0 2.62)"/><path class="cls-108" d="M257,140.1a28.76,28.76,0,0,1,3.22-13.16A32.88,32.88,0,0,1,264,121.2h-2.18V159H264a32.51,32.51,0,0,1-3.78-5.74A28.72,28.72,0,0,1,257,140.1Z" transform="translate(0 2.62)"/><path class="cls-109" d="M258.86,140.1a27.37,27.37,0,0,1,3.08-12.56h-.12v25.12h.12A27.37,27.37,0,0,1,258.86,140.1Z" transform="translate(0 2.62)"/><path class="cls-110" d="M260.73,140.1a26.12,26.12,0,0,1,2.92-12h-1.83v23.92h1.83A26.12,26.12,0,0,1,260.73,140.1Z" transform="translate(0 2.62)"/><path class="cls-111" d="M261.82,140.1v0Z" transform="translate(0 2.62)"/><path class="cls-112" d="M261.82,140.1v0Z" transform="translate(0 2.62)"/><path class="cls-113" d="M261.82,140.1v0Z" transform="translate(0 2.62)"/><path class="cls-114" d="M261.82,140.1v0Z" transform="translate(0 2.62)"/><path class="cls-115" d="M261.82,140.1v0Z" transform="translate(0 2.62)"/><path class="cls-116" d="M261.82,140.1v0Z" transform="translate(0 2.62)"/><path class="cls-117" d="M261.82,140.1v0Z" transform="translate(0 2.62)"/><path class="cls-118" d="M261.82,140.1v0Z" transform="translate(0 2.62)"/><path class="cls-119" d="M261.82,140.1v0Z" transform="translate(0 2.62)"/><path class="cls-120" d="M261.82,140.1v0Z" transform="translate(0 2.62)"/><path class="cls-121" d="M261.82,140.1v0Z" transform="translate(0 2.62)"/><path class="cls-122" d="M261.82,140.1v0Z" transform="translate(0 2.62)"/><path class="cls-123" d="M261.82,140.1v0Z" transform="translate(0 2.62)"/><path class="cls-124" d="M261.82,140.1v0Z" transform="translate(0 2.62)"/><path class="cls-125" d="M261.82,140.1v0Z" transform="translate(0 2.62)"/><path class="cls-126" d="M261.82,140.1v0Z" transform="translate(0 2.62)"/><path class="cls-127" d="M261.82,140.1v0Z" transform="translate(0 2.62)"/><path class="cls-128" d="M261.82,140.1v0Z" transform="translate(0 2.62)"/><path class="cls-129" d="M261.82,140.1v0Z" transform="translate(0 2.62)"/></g><polygon class="cls-130" points="260.82 7.8 64.5 102.99 0 65.75 260.82 7.8"/><polygon class="cls-131" points="260.82 7.8 95.97 121.15 160.46 158.39 260.82 7.8"/><polygon class="cls-132" points="95.97 121.15 260.82 7.8 64.5 102.99 80.23 162.79 95.97 121.15"/><polygon class="cls-133" points="61.63 101.33 260.82 7.8 64.5 102.99 61.63 101.33"/><polygon class="cls-134" points="95.97 121.15 260.82 7.8 98.54 122.64 95.97 121.15"/><polygon class="cls-135" points="219.03 167.14 41.79 206.51 83.67 230.69 83.67 230.69 85.62 231.82 109.03 230.13 120.32 251.85 150.83 269.47 219.03 167.14"/></svg>